<?xml version="1.0" encoding="iso-8859-1"?>
<!DOCTYPE svg PUBLIC "-//W3C//DTD SVG 1.1//EN" "http://www.w3.org/Graphics/SVG/1.1/DTD/svg11.dtd">
<svg 
 version="1.1" xmlns="http://www.w3.org/2000/svg" xmlns:xlink="http://www.w3.org/1999/xlink" x="0px" y="0px" width="512px"
	 height="512px" viewBox="0 0 512 512" enable-background="new 0 0 512 512" xml:space="preserve"
><g id="5151e0c8492e5103c096af88a5292e1a"><g></g><path display="inline" d="M380.646,405.844c4.94,4.928,4.94,12.921,0,17.84c-2.47,2.471-5.714,3.701-8.949,3.701
		s-6.479-1.23-8.949-3.701l-78.538-78.305l-60.148,42.837l-60.147-42.837l-78.542,78.305c-2.468,2.471-5.71,3.701-8.947,3.701
		s-6.477-1.23-8.947-3.701c-4.942-4.919-4.942-12.912,0-17.84l75.558-75.331l-73.965-52.681c-5.687-4.046-7.005-11.931-2.944-17.599
		c4.065-5.668,11.966-6.982,17.655-2.932l140.28,99.904l140.279-99.904c5.685-4.051,13.586-2.736,17.653,2.932
		c4.063,5.668,2.744,13.553-2.944,17.599l-73.964,52.681L380.646,405.844z M490.905,301.145l-43.281,21.342v151.162
		c0,20.872-17.033,37.852-37.964,37.852H38.463C17.531,511.5,0.5,494.521,0.5,473.648V208.684c0-2.031,0.166-4.024,0.477-5.969
		c-2.495-15.533,5.251-31.58,20.119-38.91L344.534,4.313c18.23-8.999,40.371-1.522,49.336,16.667l113.853,230.873
		C516.689,270.043,509.145,292.15,490.905,301.145z M303.598,170.833h27.866l32.365-60.137c3.223-5.972,0.981-13.407-4.99-16.601
		c-5.979-3.19-13.432-0.94-16.643,5.032L303.598,170.833z M422.314,208.684c0-6.957-5.676-12.617-12.654-12.617H38.463
		c-6.978,0-12.655,5.66-12.655,12.617v264.964c0,6.958,5.677,12.617,12.655,12.617H409.66c6.979,0,12.654-5.659,12.654-12.617
		V208.684z"></path></g></svg>